#!OML:ASF H:\GeneralSubjects\Female5\Project 1\Capture day 1\Session 1\Female5.ASF
:FULLY-SPECIFIED
:DEGREES
722
root -18.5293 15.7164 -1.75298 -171.294 -14.7229 -186.051
lowerback 8.26707 1.4543 1.54553
upperback -9.55663 1.71949 0.377373
thorax -15.2274 0.428167 -0.744969
lowerneck -15.0186 -5.37715 -6.3565
upperneck 31.6138 -8.09376 -0.439674
head 13.3959 -5.12811 -0.548252
rclavicle -2.44505e-014 -7.95139e-015
rhumerus -45.4413 18.0213 -80.0341
rradius 47.6189
rwrist -18.9543
rhand -28.7835 -21.2623
rfingers 7.12502
rthumb -2.14262 -51.2313
lclavicle -2.44505e-014 -7.95139e-015
lhumerus -54.6347 3.01278 69.1919
lradius 24.8376
lwrist -15.8373
lhand -26.1219 25.7874
lfingers 7.12502
lthumb 0.427993 55.7667
rfemur -6.88054 16.4331 -4.84172
rtibia 18.8777
rfoot -43.9023 -31.2264
rtoes 32.3983
lfemur -5.65722 -13.7949 -26.8981
ltibia 15.1757
lfoot -28.3872 -5.87281
ltoes -22.0625
723
root -18.8313 15.7492 -1.72214 -171.149 -15.1795 -186.481
lowerback 8.40889 1.2451 1.26117
upperback -9.49957 1.3966 0.303813
thorax -15.2619 0.3098 -0.603913
lowerneck -15.0221 -5.32689 -6.26395
upperneck 31.5176 -7.97435 -0.591956
head 13.3389 -5.07937 -0.597989
rclavicle 3.18055e-015 2.54444e-014
rhumerus -46.2731 17.1728 -79.7831
rradius 46.8456
rwrist -18.877
rhand -28.5037 -21.2552
rfingers 7.12502
rthumb -1.87237 -51.2267
lclavicle 3.18055e-015 2.54444e-014
lhumerus -53.3429 2.39128 69.3829
lradius 25.2455
lwrist -15.6086
lhand -26.4948 25.938
lfingers 7.12502
lthumb 0.0678624 55.9177
rfemur -9.52312 13.4997 -5.08611
rtibia 22.6981
rfoot -42.0805 -31.6461
rtoes 33.1438
lfemur -5.81566 -13.7715 -28.7327
ltibia 15.6497
lfoot -27.7128 -6.25941
ltoes -22.492
724
root -19.113 15.7815 -1.69833 -171.119 -15.6648 -186.655
lowerback 8.56904 1.0444 1.06735
upperback -9.41884 1.11156 0.30834
thorax -15.2765 0.206346 -0.433536
lowerneck -15.0362 -5.28859 -6.1981
upperneck 31.4601 -7.88249 -0.710931
head 13.3051 -5.04289 -0.63718
rclavicle -6.95746e-015 -9.54166e-015
rhumerus -47.1558 16.3885 -79.5472
rradius 45.9683
rwrist -18.7922
rhand -28.139 -21.2661
rfingers 7.12502
rthumb -1.52018 -51.2404
lclavicle -6.95746e-015 -9.54166e-015
lhumerus -51.959 1.728 69.5106
lradius 25.8787
lwrist -15.2674
lhand -26.9717 26.184
lfingers 7.12502
lthumb -0.392801 56.1634
rfemur -12.2026 10.1745 -4.34549
rtibia 26.624
rfoot -38.3182 -32.6109
rtoes 32.2294
lfemur -5.5192 -13.9444 -30.2523
ltibia 15.471
lfoot -27.1376 -6.70611
ltoes -21.5026
725
root -19.3773 15.8119 -1.68259 -171.175 -16.153 -186.639
lowerback 8.72221 0.862964 0.922903
upperback -9.32583 0.868252 0.370813
thorax -15.2693 0.121693 -0.233907
lowerneck -15.0311 -5.26059 -6.16796
upperneck 31.4355 -7.8157 -0.800113
head 13.2855 -5.02024 -0.663995
rclavicle 2.46493e-014 3.02153e-014
rhumerus -48.0961 15.7062 -79.3427
rradius 45.0207
rwrist -18.6299
rhand -27.7434 -21.3808
rfingers 7.12502
rthumb -1.13811 -51.3575
lclavicle 2.46493e-014 3.02153e-014
lhumerus -50.5093 1.02675 69.5964
lradius 26.7021
lwrist -14.7914
lhand -27.5146 26.4863
lfingers 7.12502
lthumb -0.917129 56.4641
rfemur -14.8668 6.75049 -2.69671
rtibia 30.5257
rfoot -33.3779 -33.4782
rtoes 29.3026
lfemur -4.82255 -14.2629 -31.5116
ltibia 14.7365
lfoot -26.7656 -6.65321
ltoes -20.335
726
root -19.6272 15.841 -1.67545 -171.264 -16.6423 -186.52
lowerback 8.83493 0.700343 0.768295
upperback -9.23317 0.651044 0.46691
thorax -15.2349 0.0522175 0.00454554
lowerneck -15.0005 -5.2407 -6.16906
upperneck 31.4408 -7.76745 -0.874998
head 13.2763 -5.01037 -0.683751
rclavicle 9.14409e-015 -1.43125e-014
rhumerus -49.0944 15.1512 -79.1723
rradius 44.0317
rwrist -18.35
rhand -27.3366 -21.5886
rfingers 7.12502
rthumb -0.745171 -51.5671
lclavicle 9.14409e-015 -1.43125e-014
lhumerus -49.005 0.328375 69.6341
lradius 27.6525
lwrist -14.2211
lhand -28.1067 26.8049
lfingers 7.12502
lthumb -1.48893 56.7794
rfemur -17.4611 3.57451 -0.317775
rtibia 34.2375
rfoot -28.7991 -33.5724
rtoes 24.5874
lfemur -3.85991 -14.6682 -32.5953
ltibia 13.6308
lfoot -26.6464 -5.68176
ltoes -20.3282
727
root -19.8643 15.8701 -1.67631 -171.32 -17.1199 -186.374
lowerback 8.87908 0.553662 0.551653
upperback -9.15978 0.440877 0.565745
thorax -15.1783 -0.00900314 0.280399
lowerneck -14.9627 -5.22522 -6.15994
upperneck 31.4839 -7.7281 -0.980635
head 13.2799 -5.01022 -0.720071
rclavicle -1.15295e-014 -6.36111e-015
rhumerus -50.1277 14.7239 -79.0523
rradius 43.0002
rwrist -17.9525
rhand -26.8305 -21.767
rfingers 7.12502
rthumb -0.256344 -51.7466
lclavicle -1.15295e-014 -6.36111e-015
lhumerus -47.4512 -0.331637 69.591
lradius 28.6617
lwrist -13.6234
lhand -28.7116 27.1113
lfingers 7.12502
lthumb -2.0732 57.081
rfemur -20.0092 0.830145 2.61832
rtibia 37.6416
rfoot -25.1779 -33.2586
rtoes 17.9168
lfemur -2.80442 -15.1013 -33.5709
ltibia 12.3496
lfoot -26.6235 -3.92771
ltoes -21.8394
728
root -20.0895 15.8999 -1.68419 -171.289 -17.5814 -186.259
lowerback 8.83806 0.413726 0.253149
upperback -9.1185 0.216365 0.632598
thorax -15.104 -0.0732069 0.5702
lowerneck -14.9148 -5.2094 -6.13711
upperneck 31.5444 -7.70648 -1.0597
head 13.2898 -5.01429 -0.751791
rclavicle -5.96354e-016 2.22639e-014
rhumerus -51.2052 14.404 -79.0077
rradius 41.9578
rwrist -17.4342
rhand -26.1655 -21.8286
rfingers 7.12502
rthumb 0.385853 -51.808
lclavicle -5.96354e-016 2.22639e-014
lhumerus -45.8513 -0.921452 69.4199
lradius 29.6822
lwrist -13.0711
lhand -29.2754 27.3675
lfingers 7.12502
lthumb -2.61766 57.3312
rfemur -22.492 -1.39666 5.92255
rtibia 40.5991
rfoot -23.0709 -32.3938
rtoes 10.8514
lfemur -1.7995 -15.5062 -34.4818
ltibia 11.0417
lfoot -26.4564 -1.88337
ltoes -23.8402
729
root -20.3042 15.9301 -1.69811 -171.152 -18.0416 -186.191
lowerback 8.70595 0.277638 -0.134352
upperback -9.11312 -0.0264861 0.672476
thorax -15.012 -0.141502 0.883718
lowerneck -14.8534 -5.2017 -6.15756
upperneck 31.6009 -7.71074 -1.06223
head 13.3017 -5.02458 -0.750476
rclavicle -4.31363e-014 1.90833e-014
rhumerus -52.3361 14.1801 -78.9967
rradius 40.9546
rwrist -16.7874
rhand -25.3873 -21.7931
rfingers 7.12502
rthumb 1.13755 -51.7699
lclavicle -4.31363e-014 1.90833e-014
lhumerus -44.2204 -1.38209 69.1417
lradius 30.6932
lwrist -12.6504
lhand -29.7614 27.5862
lfingers 7.12502
lthumb -3.08708 57.5436
rfemur -24.8787 -3.22412 9.47267
rtibia 42.9779
rfoot -21.7101 -31.3616
rtoes 3.36667
lfemur -0.930503 -15.7981 -35.3423
ltibia 9.7805
lfoot -26.0138 -0.11022
ltoes -26.3622
